<?xml version="1.0" encoding="utf-8"?>
<!-- Generator: Adobe Illustrator 27.5.0, SVG Export Plug-In . SVG Version: 6.00 Build 0)  -->
<svg version="1.1" xmlns="http://www.w3.org/2000/svg" xmlns:xlink="http://www.w3.org/1999/xlink" x="0px" y="0px"
	 viewBox="0 0 841.89 566.929" style="enable-background:new 0 0 841.89 566.929;" xml:space="preserve">
<g id="BG">
	<rect y="0" style="fill:#FFFFFF;" width="841.89" height="566.929"/>
</g>
<g id="graphics">
	<g>
		<path style="fill:#848B8C;" d="M344.575,467.666h2.212v13.104c0,1.084,0.08,1.894,0.243,2.427h-2.018l-0.147-0.996
			c-0.129,0.665-0.68,0.996-1.652,0.996h-6.076c-1.151,0-1.941-0.21-2.37-0.632c-0.43-0.421-0.645-1.198-0.645-2.333v-5.494
			c0-1.068,0.219-1.83,0.656-2.284s1.224-0.68,2.358-0.68h5.955c0.518,0,0.842,0.028,0.972,0.085
			c0.13,0.056,0.268,0.182,0.413,0.376l0.268,0.754l0.049-2.904C344.794,469.15,344.721,468.344,344.575,467.666z M344.794,480.815
			v-6.659c0-0.486-0.065-0.818-0.196-0.997c-0.13-0.178-0.424-0.267-0.879-0.267h-6.454c-0.457,0-0.749,0.085-0.88,0.254
			c-0.13,0.17-0.195,0.507-0.195,1.01v6.659c0,0.503,0.061,0.839,0.183,1.009c0.122,0.17,0.42,0.255,0.892,0.255h6.454
			c0.391,0,0.676-0.088,0.854-0.267C344.721,481.617,344.794,481.285,344.794,480.815z"/>
		<path style="fill:#848B8C;" d="M361.783,474.738v5.494c0,1.036-0.219,1.799-0.655,2.284c-0.454,0.454-1.24,0.681-2.358,0.681
			h-6.928c-1.149,0-1.94-0.21-2.369-0.632c-0.43-0.421-0.645-1.198-0.645-2.333v-5.494c0-1.068,0.22-1.83,0.659-2.284
			c0.438-0.454,1.227-0.68,2.366-0.68h6.954c1.154,0,1.943,0.202,2.366,0.607c0.146,0.146,0.309,0.469,0.488,0.972l0.121,0.655
			V474.738z M358.648,472.893h-6.684c-0.454,0-0.745,0.085-0.875,0.254c-0.13,0.17-0.194,0.507-0.194,1.01v6.659
			c0,0.503,0.061,0.839,0.183,1.009c0.121,0.17,0.417,0.255,0.887,0.255h6.684c0.438,0,0.725-0.088,0.863-0.267
			c0.137-0.179,0.206-0.511,0.206-0.997v-6.659c0-0.486-0.053-0.818-0.158-0.997C359.454,472.982,359.15,472.893,358.648,472.893z"
			/>
		<path style="fill:#848B8C;" d="M363.947,467.666h2.333v13.104c0,1.084,0.081,1.894,0.243,2.427h-2.552l0.176-0.995l0.066-1.432
			v-10.678C364.214,468.992,364.125,468.184,363.947,467.666z"/>
		<path style="fill:#848B8C;" d="M381.545,474.738v5.494c0,1.036-0.219,1.799-0.657,2.284c-0.453,0.454-1.239,0.681-2.357,0.681
			h-6.927c-1.151,0-1.941-0.21-2.37-0.632c-0.43-0.421-0.644-1.198-0.644-2.333v-5.494c0-1.068,0.219-1.83,0.658-2.284
			c0.439-0.454,1.229-0.68,2.366-0.68h6.954c1.154,0,1.943,0.202,2.366,0.607c0.146,0.146,0.309,0.469,0.488,0.972l0.122,0.655
			V474.738z M378.409,472.893h-6.685c-0.453,0-0.745,0.085-0.875,0.254c-0.13,0.17-0.194,0.507-0.194,1.01v6.659
			c0,0.503,0.061,0.839,0.183,1.009c0.121,0.17,0.417,0.255,0.887,0.255h6.685c0.438,0,0.725-0.088,0.862-0.267
			c0.138-0.179,0.207-0.511,0.207-0.997v-6.659c0-0.486-0.053-0.818-0.158-0.997C379.215,472.982,378.911,472.893,378.409,472.893z"
			/>
		<path style="fill:#848B8C;" d="M387.061,471.775h4.546l-0.122,1.725l-1.629-0.195l-1.458-0.073h-1.701
			c-0.454,0-0.745,0.085-0.874,0.256c-0.131,0.17-0.195,0.507-0.195,1.009v6.272c0,0.939,0.073,1.749,0.219,2.43h-2.504
			c0.146-0.584,0.22-1.393,0.22-2.43v-6.564c0-0.939-0.073-1.75-0.22-2.43h2.066l0.098,1.068c0.161-0.372,0.352-0.645,0.571-0.814
			C386.297,471.859,386.625,471.775,387.061,471.775z"/>
		<path style="fill:#848B8C;" d="M402.958,476.197h6.027c1.151,0,1.936,0.198,2.358,0.596c0.421,0.397,0.632,1.186,0.632,2.37v2.09
			c0,0.648-0.211,1.135-0.633,1.459c-0.423,0.324-1.137,0.485-2.144,0.485h-9.206l-0.171-1.337c0.617,0.145,1.438,0.219,2.461,0.219
			h6.772c0.423,0,0.703-0.088,0.841-0.267c0.139-0.179,0.208-0.511,0.208-0.997v-1.361c0-0.485-0.054-0.817-0.158-0.996
			c-0.105-0.179-0.401-0.268-0.887-0.268h-6.247c-1.135,0-1.917-0.211-2.347-0.632c-0.429-0.421-0.643-1.199-0.643-2.333v-0.487
			c0-1.068,0.219-1.83,0.656-2.284s1.215-0.68,2.334-0.68h8.944l0.219,1.337c-0.583-0.146-1.402-0.219-2.455-0.219h-6.562
			c-0.454,0-0.745,0.085-0.875,0.254c-0.13,0.17-0.194,0.507-0.194,1.01v0.777c0,0.502,0.06,0.838,0.183,1.008
			C402.192,476.112,402.488,476.197,402.958,476.197z"/>
		<path style="fill:#848B8C;" d="M416.424,471.775v8.993c0,1.085,0.081,1.895,0.243,2.43h-2.553l0.177-0.996l0.066-1.434v-6.564
			c0-1.102-0.089-1.912-0.268-2.43H416.424z M414.357,470.364v-1.653h2.066v1.653H414.357z"/>
		<path style="fill:#848B8C;" d="M428.065,472.893h-5.735v7.923c0,0.503,0.062,0.839,0.182,1.009c0.122,0.17,0.41,0.255,0.863,0.255
			h2.82c0.972,0,1.79-0.073,2.454-0.219l-0.17,1.337h-5.226c-1.15,0-1.938-0.21-2.357-0.632c-0.422-0.421-0.633-1.198-0.633-2.333
			v-7.34h-1.798v-1.118h1.798v-2.262l2.066-0.389v2.65h5.735V472.893z"/>
		<path style="fill:#848B8C;" d="M449.82,474.738v6.029c0,1.085,0.081,1.895,0.243,2.43h-1.994l-0.217-0.728
			c-0.146,0.285-0.315,0.494-0.509,0.628l-0.388,0.101h-0.68h-6.112c-1.147,0-1.936-0.21-2.364-0.632
			c-0.43-0.421-0.643-1.198-0.643-2.333v-1.751c0-1.068,0.218-1.831,0.653-2.284c0.438-0.454,1.222-0.68,2.354-0.68h6.522
			c0.388,0,0.671-0.09,0.849-0.268c0.146-0.194,0.219-0.525,0.219-0.996v-0.145c0-0.47-0.088-0.786-0.267-0.948
			c-0.146-0.178-0.413-0.267-0.8-0.267h-6.863c-0.921,0-1.737,0.072-2.449,0.219l0.17-1.337h9.286c1.149,0,1.936,0.197,2.357,0.594
			C449.609,472.766,449.82,473.557,449.82,474.738z M447.754,480.815v-4.18h-7.465c-0.453,0-0.743,0.084-0.872,0.254
			c-0.129,0.17-0.193,0.507-0.193,1.009v2.917c0,0.503,0.059,0.839,0.181,1.009c0.121,0.17,0.416,0.255,0.885,0.255h6.398
			c0.388,0,0.671-0.088,0.849-0.267C447.681,481.617,447.754,481.285,447.754,480.815z"/>
		<path style="fill:#848B8C;" d="M459.324,471.775h2.284v0.826l0.389-0.607c0.145-0.146,0.389-0.219,0.729-0.219h6.514
			c0.681,0,1.167,0.072,1.458,0.219c0.244,0.193,0.422,0.494,0.536,0.899c0.146-0.439,0.318-0.734,0.522-0.888
			c0.202-0.154,0.644-0.23,1.323-0.23h4.06c1.459,0,2.476,0.233,3.051,0.704c0.575,0.471,0.863,1.385,0.863,2.747v5.542
			c0,0.939,0.073,1.749,0.219,2.43h-2.504c0.146-0.584,0.219-1.393,0.219-2.43v-6.611c0-0.486-0.053-0.818-0.158-0.997
			c-0.105-0.178-0.4-0.267-0.888-0.267H472.4c-0.454,0-0.746,0.085-0.875,0.254c-0.13,0.17-0.194,0.507-0.194,1.01v6.611
			c0,0.939,0.073,1.749,0.219,2.43h-2.504c0.145-0.584,0.219-1.393,0.219-2.43v-6.611c0-0.486-0.053-0.818-0.158-0.997
			c-0.105-0.178-0.4-0.267-0.887-0.267h-5.542c-0.454,0-0.745,0.085-0.875,0.254c-0.13,0.17-0.194,0.507-0.194,1.01v6.611
			c0,0.939,0.073,1.749,0.219,2.43h-2.503c0.145-0.586,0.219-1.4,0.219-2.443v-6.598
			C459.543,473.235,459.469,472.44,459.324,471.775z"/>
		<path style="fill:#848B8C;" d="M496.123,478.19h-10.889v2.625c0,0.503,0.061,0.839,0.182,1.009
			c0.122,0.17,0.417,0.255,0.888,0.255h7.364c0.924,0,1.742-0.073,2.455-0.219l-0.292,1.337h-9.65c-1.15,0-1.94-0.21-2.37-0.632
			c-0.429-0.421-0.643-1.198-0.643-2.333v-5.494c0-1.068,0.22-1.83,0.657-2.284c0.44-0.454,1.229-0.68,2.368-0.68h6.954
			c1.154,0,1.942,0.202,2.366,0.607c0.145,0.146,0.308,0.469,0.487,0.972l0.122,0.655v0.73V478.19z M485.234,477.073h8.822v-2.917
			c0-0.486-0.053-0.818-0.158-0.997c-0.105-0.178-0.409-0.267-0.911-0.267h-6.684c-0.454,0-0.746,0.085-0.876,0.254
			c-0.129,0.17-0.193,0.507-0.193,1.01V477.073z"/>
		<path style="fill:#848B8C;" d="M507.183,472.893h-5.736v7.923c0,0.503,0.06,0.839,0.183,1.009c0.121,0.17,0.409,0.255,0.862,0.255
			h2.82c0.972,0,1.789-0.073,2.455-0.219l-0.17,1.337h-5.227c-1.15,0-1.936-0.21-2.358-0.632c-0.421-0.421-0.631-1.198-0.631-2.333
			v-7.34h-1.8v-1.118h1.8v-2.262l2.065-0.389v2.65h5.736V472.893z"/>
	</g>
	<g>
		<path style="fill:#565D5E;" d="M330.807,422.281v35.813h-12.36v-35.813H330.807z"/>
		<path style="fill:#565D5E;" d="M353.854,447.203l-8.661-7.75v18.641h-12.36v-35.813h28.214c2.465,0,4.567,0.178,6.307,0.531
			c1.738,0.357,3.165,0.973,4.279,1.85c1.115,0.879,1.926,2.052,2.432,3.521c0.506,1.469,0.76,3.317,0.76,5.546
			c0,4.626-0.886,8.028-2.659,10.206c-1.774,2.179-4.771,3.268-8.992,3.268H353.854z M345.193,437.934h14.79
			c0.878,0,1.655-0.244,2.33-0.734c0.675-0.49,1.014-1.19,1.014-2.103c-0.068-0.675-0.423-1.266-1.063-1.772
			c-0.643-0.506-1.352-0.76-2.128-0.76h-14.943V437.934z"/>
		<path style="fill:#565D5E;" d="M377.763,452.37v-3.394h27.15c0.911,0,1.747-0.16,2.507-0.481c0.76-0.321,1.096-0.956,1.139-1.747
			c0.043-0.792-0.261-1.376-1.316-1.723c-1.055-0.347-18.212-0.67-21.224-0.809c-3.011-0.141-5.977-1.386-7.496-3.547
			c-0.575-0.777-0.997-1.747-1.267-2.913c-0.27-1.165-0.405-2.507-0.405-4.026c0-3.816,0.751-6.679,2.254-8.586
			c1.502-1.907,3.977-2.862,7.421-2.862c0,0,22.343,0,25.834,0c3.491,0,6.748,2.017,6.838,5.471l0.151,3.646H392.25
			c-3.018,0-3.395,1.335-3.395,2.179c0,0.777,0.321,1.31,0.962,1.596c0.641,0.287,1.339,0.367,2.583,0.431
			c1.245,0.063,17.853,0.211,19.351,0.253c1.497,0.043,3.207,0.516,4.457,1.14c1.249,0.626,2.211,1.528,2.887,2.711l0.05,0.05
			c0.979,1.96,1.47,4.306,1.47,7.041c0,3.951-0.88,6.822-2.635,8.611c-1.756,1.791-4.61,2.685-8.56,2.685h-24.619
			C380.964,458.094,377.763,456.71,377.763,452.37z"/>
		<path style="fill:#565D5E;" d="M434.85,422.281v23.605c0,0.405,0.21,0.734,0.633,0.987c0.422,0.254,1.071,0.38,1.95,0.38h15.146
			c0.979,0,1.68-0.126,2.103-0.38c0.421-0.253,0.634-0.582,0.634-0.987v-23.605h12.157v25.074c0,1.621-0.186,3.022-0.558,4.203
			c-0.373,1.183-1.081,2.298-2.128,3.344c-0.507,0.474-0.972,0.879-1.394,1.217c-0.422,0.337-0.818,0.607-1.189,0.81
			c-0.744,0.439-1.74,0.76-2.989,0.963c-0.506,0.135-1.207,0.234-2.103,0.304c-0.895,0.067-1.815,0.117-2.761,0.152
			c-1.013,0-2.33,0.008-3.951,0.024c-1.62,0.017-3.393,0.025-5.317,0.025c-2.061,0-3.858-0.009-5.395-0.025
			c-1.537-0.017-2.811-0.024-3.825-0.024c-2.194-0.069-3.85-0.222-4.964-0.456h0.051c-0.607-0.102-1.149-0.229-1.621-0.38
			c-0.474-0.151-0.92-0.338-1.342-0.558c-0.424-0.219-0.845-0.498-1.268-0.835c-0.422-0.338-0.886-0.743-1.393-1.217
			c-1.081-1.046-1.798-2.152-2.153-3.317c-0.354-1.166-0.531-2.575-0.531-4.229v-25.074H434.85z"/>
		<path style="fill:#565D5E;" d="M511.843,458.094v-22.338l-11.144,22.338h-8.206l-11.296-22.034v22.034h-11.701v-35.813h18.083
			l8.916,18.945c1.52-3.141,3.039-6.314,4.558-9.523c1.521-3.207,2.989-6.349,4.407-9.422h17.982v35.813H511.843z"/>
	</g>
	<g>
		<g>
			<g>
				<linearGradient id="SVGID_1_" gradientUnits="userSpaceOnUse" x1="418.2913" y1="161.7135" x2="446.2834" y2="125.4513">
					<stop  offset="0" style="stop-color:#070E4C"/>
					<stop  offset="1" style="stop-color:#29ABE2"/>
				</linearGradient>
				<path style="fill:url(#SVGID_1_);" d="M403.654,152.576l35.372,22.446v-51.424c0-3.379-3.822-5.341-6.567-3.368l-29.518,21.228
					C402.446,142.019,397.107,148.345,403.654,152.576z"/>
			</g>
			<g>
				
					<linearGradient id="SVGID_00000168115338374280580840000012814797751142570657_" gradientUnits="userSpaceOnUse" x1="418.2914" y1="1582.5933" x2="447.3689" y2="1544.9248" gradientTransform="matrix(1 0 0 -1 0 1940.7656)">
					<stop  offset="0" style="stop-color:#070E4C"/>
					<stop  offset="1" style="stop-color:#29ABE2"/>
				</linearGradient>
				<path style="fill:url(#SVGID_00000168115338374280580840000012814797751142570657_);" d="M403.654,367.31l35.372-22.446v51.424
					c0,3.38-3.822,5.342-6.567,3.369l-29.518-21.229C402.446,377.868,397.107,371.54,403.654,367.31z"/>
			</g>
			
				<linearGradient id="SVGID_00000028284453093508693930000016358418861678696864_" gradientUnits="userSpaceOnUse" x1="389.1503" y1="259.9424" x2="458.3662" y2="259.9424">
				<stop  offset="0" style="stop-color:#2E3192"/>
				<stop  offset="0.5681" style="stop-color:#29ABE2"/>
				<stop  offset="0.9515" style="stop-color:#00FFFF"/>
			</linearGradient>
			<path style="fill:url(#SVGID_00000028284453093508693930000016358418861678696864_);" d="M447.4,188.496
				c0-5.031-2.573-9.749-6.8-12.477l-36.947-23.443c-6.848-4.426-0.689-11.148-0.674-11.162l-1.129,0.811
				c-4.114,2.958-6.568,7.748-6.568,12.815c0,9.922,0,199.886,0,209.807c0,5.066,2.454,9.855,6.568,12.814l1.129,0.81
				c-0.016-0.013-6.174-6.734,0.674-11.161l36.947-23.443c7.692-4.961,6.8-12.584,6.8-17.88l-0.003-5.348
				C447.397,306.483,447.4,202.82,447.4,188.496z"/>
		</g>
		<g>
			
				<linearGradient id="SVGID_00000180363505316787434230000004644809587862717586_" gradientUnits="userSpaceOnUse" x1="675.0433" y1="250.6976" x2="750.3813" y2="250.6976" gradientTransform="matrix(1 0 0 1 -262.4668 0)">
				<stop  offset="0" style="stop-color:#2E3192"/>
				<stop  offset="0.5681" style="stop-color:#29ABE2"/>
				<stop  offset="1" style="stop-color:#00FFFF"/>
			</linearGradient>
			<path style="fill:url(#SVGID_00000180363505316787434230000004644809587862717586_);" d="M489.519,186.907
				c0-5.066-2.456-9.857-6.569-12.814l-1.128-0.811c0.014,0.016,6.173,6.736-0.674,11.162l-48.393,31.203
				c-4.228,2.727-6.8,7.445-6.8,12.477c0,2.485,0.001,50.646,0.001,86.365c0,5.066,2.455,9.857,6.569,12.814l1.128,0.813
				c-0.014-0.016-6.172-6.737,0.674-11.162l48.394-31.204c4.227-2.726,6.798-7.445,6.798-12.477v-5.402
				C489.519,236.792,489.519,217.714,489.519,186.907z"/>
			<g>
				
					<linearGradient id="SVGID_00000155113739390775213560000017658283687399519153_" gradientUnits="userSpaceOnUse" x1="713.9853" y1="323.4562" x2="727.1419" y2="343.9804" gradientTransform="matrix(1 0 0 1 -262.4668 0)">
					<stop  offset="0" style="stop-color:#070E4C"/>
					<stop  offset="1" style="stop-color:#29ABE2"/>
				</linearGradient>
				<path style="fill:url(#SVGID_00000155113739390775213560000017658283687399519153_);" d="M434.327,316.952
					c-6.521,4.216-1.247,10.509-0.72,11.109l18.22,13.102c2.744,1.973,6.569,0.013,6.569-3.367v-36.364L434.327,316.952z"/>
			</g>
			<g>
				
					<linearGradient id="SVGID_00000152227042145356340830000012523160173791535241_" gradientUnits="userSpaceOnUse" x1="729.4758" y1="177.481" x2="721.9216" y2="153.9118" gradientTransform="matrix(1 0 0 1 -262.4668 0)">
					<stop  offset="0" style="stop-color:#070E4C"/>
					<stop  offset="0.5889" style="stop-color:#1D73AC"/>
					<stop  offset="1" style="stop-color:#29ABE2"/>
				</linearGradient>
				<path style="fill:url(#SVGID_00000152227042145356340830000012523160173791535241_);" d="M481.147,184.443
					c6.847-4.426,0.688-11.146,0.674-11.162l-18.174-13.069c-2.743-1.974-6.569-0.012-6.569,3.368v36.383L481.147,184.443z"/>
			</g>
		</g>
		<g>
			
				<linearGradient id="SVGID_00000173125980222082275730000001585564940901557688_" gradientUnits="userSpaceOnUse" x1="770.4126" y1="250.6976" x2="833.9766" y2="250.6976" gradientTransform="matrix(-1 0 0 1 1186.3477 0)">
				<stop  offset="0.0485" style="stop-color:#00FFFF"/>
				<stop  offset="0.4319" style="stop-color:#29ABE2"/>
				<stop  offset="1" style="stop-color:#2E3192"/>
			</linearGradient>
			<path style="fill:url(#SVGID_00000173125980222082275730000001585564940901557688_);" d="M352.372,186.907
				c0-5.066,2.455-9.857,6.568-12.814l1.128-0.811c-0.014,0.016-6.172,6.736,0.674,11.162l48.393,31.203
				c4.227,2.727,6.799,7.445,6.799,12.477c0,2.485-0.001,50.646-0.001,86.365c0,5.066-2.455,9.857-6.569,12.814l-1.128,0.813
				c0.015-0.016,6.173-6.737-0.674-11.162l-48.392-31.204c-4.227-2.726-6.799-7.445-6.799-12.477v-5.402
				C352.372,236.792,352.372,217.714,352.372,186.907z"/>
			<g>
				
					<linearGradient id="SVGID_00000081628923218478112020000011993126760134031246_" gradientUnits="userSpaceOnUse" x1="795.9763" y1="323.4563" x2="809.1329" y2="343.9805" gradientTransform="matrix(-1 0 0 1 1186.3477 0)">
					<stop  offset="0" style="stop-color:#070E4C"/>
					<stop  offset="1" style="stop-color:#29ABE2"/>
				</linearGradient>
				<path style="fill:url(#SVGID_00000081628923218478112020000011993126760134031246_);" d="M407.563,316.952
					c6.522,4.216,1.249,10.509,0.72,11.109l-18.22,13.102c-2.744,1.973-6.569,0.013-6.569-3.367v-36.364L407.563,316.952z"/>
			</g>
			<g>
				
					<linearGradient id="SVGID_00000155827968999124772360000017594084301010244533_" gradientUnits="userSpaceOnUse" x1="811.4669" y1="177.481" x2="803.9127" y2="153.9116" gradientTransform="matrix(-1 0 0 1 1186.3477 0)">
					<stop  offset="0" style="stop-color:#070E4C"/>
					<stop  offset="0.5889" style="stop-color:#1D73AC"/>
					<stop  offset="1" style="stop-color:#29ABE2"/>
				</linearGradient>
				<path style="fill:url(#SVGID_00000155827968999124772360000017594084301010244533_);" d="M360.743,184.443
					c-6.846-4.426-0.688-11.146-0.674-11.162l18.175-13.069c2.744-1.974,6.568-0.012,6.568,3.368v36.383L360.743,184.443z"/>
			</g>
		</g>
	</g>
</g>
</svg>
